<svg xmlns="http://www.w3.org/2000/svg" viewBox="0 0 514 66"><defs><style>.cls-1{isolation:isolate;}.cls-2{fill:#fff;}.cls-3{fill:none;stroke:#0055a4;stroke-miterlimit:10;stroke-width:2.452px;}.cls-3,.cls-5{opacity:0.9;}.cls-3,.cls-4,.cls-5{mix-blend-mode:multiply;}.cls-4,.cls-8{fill:#ef4135;}.cls-5,.cls-7{fill:#0055a4;}.cls-6{fill:#fff1e0;}</style></defs><title>French election identityv2--final</title><g class="cls-1"><g id="Layer_1" data-name="Layer 1"><rect class="cls-2" x="15.481" y="5.11" width="36.782" height="34.783" rx="3.351" ry="3.351"/><rect class="cls-3" x="15.526" y="4.113" width="36.777" height="36.777" rx="3.445" ry="3.445"/><rect class="cls-4" x="5.473" y="14.166" width="36.777" height="36.777" rx="3.445" ry="3.445"/><rect class="cls-5" x="23.903" y="25.336" width="36.777" height="36.777" rx="3.445" ry="3.445"/><path class="cls-6" d="M37.194,53.6L60.68,29.762,60.669,28.5a3.419,3.419,0,0,0-3.229-3.153l-3.39.04L37.533,41.553,30.9,34.729l-6.339,6.159Z"/><path class="cls-7" d="M70.015,42.25V22.6H83.838V27.05H75.1v3.9h8.031v4.353H75.1V42.25H70.015Z"/><path class="cls-7" d="M91.221,35.754v6.5H86.133V22.6h8.832c4.224,0,7.135,2.4,7.135,6.688a5.905,5.905,0,0,1-3.9,5.919l4.607,7.04h-5.7l-4.1-6.5H91.221Zm0-4.1h3.2c1.823,0,2.655-.928,2.655-2.368s-0.832-2.368-2.655-2.368h-3.2v4.735Z"/><path class="cls-7" d="M116.323,22.6l7.487,19.647h-5.216l-1.407-3.808h-7.136l-1.376,3.808h-5.088L111.076,22.6h5.247Zm-4.7,11.616h4.031l-2.016-5.536Z"/><path class="cls-7" d="M142.544,42.25h-4.159l-8.224-11.488V42.25H125.2V22.6H130l7.584,10.815V22.6h4.959V42.25Z"/><path class="cls-7" d="M154.826,22.283a8.862,8.862,0,0,1,4.991,1.344v4.992a7.315,7.315,0,0,0-4.575-1.6c-3.264,0-5.344,2.016-5.344,5.408a4.967,4.967,0,0,0,5.344,5.375,7.278,7.278,0,0,0,4.575-1.567v4.991a8.862,8.862,0,0,1-4.991,1.344c-5.983,0-10.079-4.031-10.079-10.143S148.843,22.283,154.826,22.283Z"/><path class="cls-7" d="M176.668,22.6v4.416h-8.991V30.09H175.9v4.32h-8.224V37.8h8.991V42.25H162.621V22.6h14.047Z"/><path class="cls-8" d="M189.661,34.922V42.25h-3.328V22.6h7.584c4.063,0,6.719,2.112,6.719,6.175,0,4-2.655,6.144-6.719,6.144h-4.256Zm4.191-9.439h-4.191v6.56h4.191c2.3,0,3.487-1.376,3.487-3.264C197.34,26.826,196.156,25.483,193.853,25.483Z"/><path class="cls-8" d="M206.448,34.282V42.25H203.12V22.6H210.7c4.063,0,6.688,2.048,6.688,5.888,0,3.3-1.92,5.184-5.024,5.664l5.7,8.1h-3.776l-5.472-7.968h-2.367Zm0-2.784h4.191c2.208,0,3.456-1.184,3.456-3.007s-1.248-3.008-3.456-3.008h-4.191V31.5Z"/><path class="cls-8" d="M233.385,22.6v2.944h-9.567V30.73h8.672v2.912h-8.672v5.632h9.567V42.25H220.554V22.6h12.831Z"/><path class="cls-8" d="M235.8,37.354a9.906,9.906,0,0,0,6.239,2.271c2.24,0,3.808-.8,3.808-2.56,0-1.536-.991-2.145-2.752-2.816l-2.848-1.023c-2.623-.96-4.607-2.368-4.607-5.6,0-3.456,3.008-5.343,6.624-5.343a10.6,10.6,0,0,1,5.791,1.6v3.424a9.109,9.109,0,0,0-5.728-2.112c-1.983,0-3.456.768-3.456,2.368,0,1.44.929,2.016,2.561,2.592l3.167,1.152c3.072,1.12,4.48,2.848,4.48,5.7,0,3.584-3.04,5.567-7.04,5.567a11.212,11.212,0,0,1-6.239-1.728V37.354Z"/><path class="cls-8" d="M255.555,42.25h-3.328V22.6h3.328V42.25Z"/><path class="cls-8" d="M259.625,22.6h6.624c5.791,0,9.535,3.84,9.535,9.823s-3.744,9.824-9.535,9.824h-6.624V22.6Zm6.5,16.671c4.128,0,6.336-2.656,6.336-6.848,0-4.224-2.208-6.879-6.336-6.879h-3.167V39.274h3.167Z"/><path class="cls-8" d="M291.69,22.6v2.944h-9.567V30.73h8.672v2.912h-8.672v5.632h9.567V42.25H278.859V22.6H291.69Z"/><path class="cls-8" d="M310.826,42.25h-2.56l-10.047-14.3v14.3h-3.2V22.6h3.136l9.472,13.631V22.6h3.2V42.25Z"/><path class="cls-8" d="M313.311,22.6h16.383v2.944h-6.527v16.7h-3.328v-16.7h-6.527V22.6Z"/><path class="cls-8" d="M335.5,42.25h-3.328V22.6H335.5V42.25Z"/><path class="cls-8" d="M348.551,22.6L356.1,42.25H352.71l-2.016-5.439h-7.52l-2.016,5.439H337.8L345.351,22.6h3.2ZM344.23,33.93h5.376l-2.687-7.264Z"/><path class="cls-8" d="M358.448,22.6h3.328V39.274h9.439V42.25H358.448V22.6Z"/><path class="cls-8" d="M394.511,22.6v2.944h-9.567V30.73h8.672v2.912h-8.672v5.632h9.567V42.25H381.68V22.6h12.831Z"/><path class="cls-8" d="M397.84,22.6h3.328V39.274h9.439V42.25H397.84V22.6Z"/><path class="cls-8" d="M426.047,22.6v2.944h-9.567V30.73h8.672v2.912h-8.672v5.632h9.567V42.25H413.216V22.6h12.831Z"/><path class="cls-8" d="M437.4,22.283a7.965,7.965,0,0,1,5.216,1.7v3.456a7.169,7.169,0,0,0-5.184-2.176c-3.744,0-6.176,2.944-6.176,7.167,0,4.192,2.432,7.135,6.176,7.135a7.136,7.136,0,0,0,5.184-2.144v3.456a7.968,7.968,0,0,1-5.216,1.7c-5.472,0-9.5-4.1-9.5-10.143S431.925,22.283,437.4,22.283Z"/><path class="cls-8" d="M444.818,22.6H461.2v2.944h-6.527v16.7h-3.328v-16.7h-6.527V22.6Z"/><path class="cls-8" d="M467.014,42.25h-3.328V22.6h3.328V42.25Z"/><path class="cls-8" d="M479.137,42.569c-5.312,0-9.055-4.287-9.055-10.143,0-5.888,3.743-10.143,9.055-10.143s9.088,4.255,9.088,10.143C488.225,38.282,484.449,42.569,479.137,42.569Zm0-17.311c-3.455,0-5.7,3.008-5.7,7.167s2.24,7.167,5.7,7.167,5.729-3.008,5.729-7.167S482.593,25.258,479.137,25.258Z"/><path class="cls-8" d="M507.107,42.25h-2.56L494.5,27.946v14.3h-3.2V22.6h3.136l9.472,13.631V22.6h3.2V42.25Z"/></g></g></svg>