<svg xmlns="http://www.w3.org/2000/svg" viewBox="0 0 514 70"><defs><style>.cls-1{isolation:isolate;}.cls-2,.cls-5{fill:#0055a4;}.cls-2{opacity:0.9;}.cls-2,.cls-3{mix-blend-mode:multiply;}.cls-3,.cls-6{fill:#ef4135;}.cls-4{fill:#fff1e0;}</style></defs><title>French election identity--finalv2.2-outlined</title><g class="cls-1"><g id="Layer_1" data-name="Layer 1"><path class="cls-2" d="M48.86 44.42h-29.9a4.68 4.68 0 0 1-4.66-4.67V9.87a4.68 4.68 0 0 1 4.67-4.68h29.9a4.68 4.68 0 0 1 4.66 4.6v29.9a4.68 4.68 0 0 1-4.67 4.6zM18.96 7.65a2.22 2.22 0 0 0-2.2 2.22v29.88a2.22 2.22 0 0 0 2.2 2.22h29.9a2.22 2.22 0 0 0 2.22-2.22V9.87a2.22 2.22 0 0 0-2.22-2.22h-29.9z"/><rect class="cls-3" x="5.47" y="18.97" width="36.78" height="36.78" rx="3.44" ry="3.44"/><path class="cls-2" d="M57.23 66.92H27.36a3.44 3.44 0 0 1-3.45-3.45V33.6a3.44 3.44 0 0 1 3.5-3.46h30a3.44 3.44 0 0 1 3.3 3.3v30.03a3.44 3.44 0 0 1-3.4 3.45z"/><path class="cls-4" d="M37.2 58.4l23.48-23.83v-1.12a3.42 3.42 0 0 0-3.3-3.3h-3.3l-16.55 16.2-6.63-6.8-6.34 6.15z"/></g><g id="Layer_2" data-name="Layer 2"><path class="cls-5" d="M70.2 45.2V25.54h13.83V30H75.3v3.9h8.02v4.35H75.3v6.94h-5.1zm21.2-6.5v6.5h-5.08V25.55h8.84c4.22 0 7.13 2.4 7.13 6.68a5.9 5.9 0 0 1-3.9 5.92l4.6 7.04h-5.7l-4.1-6.5h-1.8zm0-4.1h3.2c1.84 0 2.67-.93 2.67-2.37s-.83-2.37-2.66-2.37h-3.2v4.74zm27.35-9.05v4.4h-9v3.08H118v4.32h-8.22v3.4h9v4.44H104.7V25.5h14.05zm20.1 19.65h-4.15l-8.22-11.5v11.5h-4.96V25.54h4.8l7.58 10.8v-10.8h4.96V45.2zm12.3-19.97a8.87 8.87 0 0 1 5 1.34v5a7.32 7.32 0 0 0-4.6-1.6c-3.25 0-5.33 2-5.33 5.4a4.97 4.97 0 0 0 5.34 5.38 7.28 7.28 0 0 0 4.58-1.57v5a8.87 8.87 0 0 1-5 1.33c-5.98 0-10.07-4-10.07-10.1s4.1-10.1 10.07-10.1zm25.68.32V45.2h-5.16v-7.8h-7.58v7.77h-5.2V25.54h5.1V33h7.5v-7.45h5.13z"/><path class="cls-6" d="M191.44 37.87v7.32h-3.32V25.5h7.58c4.06 0 6.72 2.1 6.72 6.17 0 4-2.66 6.15-6.72 6.15h-4.26zm4.2-9.44h-4.2V35h4.2c2.3 0 3.48-1.4 3.48-3.28 0-1.95-1.18-3.3-3.5-3.3zm12.6 8.8v7.96h-3.34V25.5h7.58c4.07 0 6.7 2.04 6.7 5.88 0 3.3-1.93 5.2-5.03 5.68l5.7 8.1h-3.78l-5.47-7.98h-2.37zm0-2.8h4.2c2.2 0 3.44-1.17 3.44-3s-1.25-3-3.46-3h-4.2v6zm26.93-8.88v2.94h-9.57v5.1h8.67v2.9h-8.67v5.6h9.57V45h-12.83V25.5h12.83zm2.4 14.75a9.9 9.9 0 0 0 6.25 2.27c2.24 0 3.8-.8 3.8-2.56 0-1.5-.98-2.1-2.74-2.8l-2.85-1c-2.63-.9-4.6-2.3-4.6-5.6 0-3.4 3-5.3 6.6-5.3a10.6 10.6 0 0 1 5.8 1.6v3.4a9.1 9.1 0 0 0-5.72-2.1c-1.9 0-3.4.8-3.4 2.4 0 1.5 1 2 2.6 2.6l3.2 1.2c3.1 1.1 4.5 2.88 4.5 5.7 0 3.6-3 5.6-7 5.6a11.2 11.2 0 0 1-6.22-1.73v-3.5zm19.77 4.9H254V25.54h3.34V45.2zm4.06-19.65h6.63c5.8 0 9.54 3.84 9.54 9.82s-3.75 9.82-9.54 9.82h-6.62V25.5zm6.5 16.67c4.14 0 6.34-2.66 6.34-6.85 0-4.22-2.2-6.88-6.33-6.88h-3.1v13.7h3.2zm25.57-16.67v2.94h-9.56v5.1h8.7v2.9H284v5.6h9.57V45H280.7V25.5h12.82zM312.6 45.2h-2.55L300 30.9v14.3h-3.2V25.54h3.14l9.47 13.63V25.55h3.2V45.2zm2.5-19.65h16.38v2.94h-6.53v16.7h-3.33V28.5h-6.53v-2.95zm22.2 19.65h-3.34V25.54h3.33V45.2zm13.03-19.65l7.55 19.64h-3.4l-2-5.5h-7.52l-2.02 5.4h-3.36l7.55-19.7h3.2zM346 36.87h5.4l-2.7-7.26zm14.23-11.32h3.33v16.67H373v2.97h-12.77V25.5zm36.07 0v2.94h-9.57v5.1h8.67v2.9h-8.67v5.6h9.56V45h-12.9V25.5h12.8zm3.32 0h3.33v16.67h9.44v2.97h-12.8V25.5zm28.2 0v2.94h-9.56v5.1h8.67v2.9h-8.67v5.6h9.57V45H415V25.5h12.83zm11.36-.32a7.96 7.96 0 0 1 5.22 1.7v3.45a7.17 7.17 0 0 0-5.2-2.17c-3.73 0-6.16 3-6.16 7.2s2.43 7.2 6.17 7.2a7.13 7.13 0 0 0 5.2-2.1V44a7.97 7.97 0 0 1-5.2 1.7c-5.4 0-9.5-4.1-9.5-10.14s4.1-10.13 9.5-10.13zm7.42.32h16.38v2.94h-6.52v16.7h-3.33V28.5h-6.53v-2.95zm22.2 19.65h-3.33V25.54h3.33V45.2zm12.12.3c-5.3 0-9.06-4.27-9.06-10.13 0-5.9 3.75-10.14 9.06-10.14s9.1 4.25 9.1 10.14c0 5.86-3.8 10.14-9.1 10.14zm0-17.3c-3.46 0-5.7 3-5.7 7.17s2.24 7.17 5.7 7.17 5.73-3 5.73-7.17-2.27-7.17-5.73-7.17zm27.98 17h-2.57l-10.05-14.3v14.3h-3.2V25.54h3.14l9.47 13.63V25.55h3.2V45.2z"/></g></g></svg>
